<svg xmlns="http://www.w3.org/2000/svg" xmlns:xlink="http://www.w3.org/1999/xlink" id="Layer_1" x="0" y="0" enable-background="new 0 0 875.5 701.8" version="1.1" viewBox="0 0 875.5 701.8" xml:space="preserve"><style type="text/css">.st0{fill:none;stroke:#939393;stroke-miterlimit:10}.st1{fill:#939393}.st2,.st3,.st4{fill:#006ffe;stroke:#fff;stroke-miterlimit:10}.st3,.st4{fill:none;stroke:#b2afaf;stroke-width:.5}.st4{fill:#fff;stroke:#a2a4a7}.st5{fill:#717272}.st6{font-family:&apos;Helvetica-Light&apos;}.st7{font-size:14px}.st8{fill:#006ffe}.st9{fill:#1ae0e6}.st10{enable-background:new}.st11{fill:#fff}.st12{fill:#1ae0e6;stroke:#006ffe;stroke-miterlimit:10}.st13{fill:#303030}.st14{font-family:&apos;AndaleMono&apos;}.st15{font-size:10px}</style><switch><g><g><g><line x1="564.8" x2="564.8" y1="641.2" y2="424.6" class="st0"/><g><path d="M564.8,418.6c1.1,2.8,2.9,6.4,4.8,8.5l-4.8-1.7l-4.8,1.7C562,424.9,563.8,421.4,564.8,418.6z" class="st1"/></g></g></g><path d="M346.7,182.3h-114c-2.5,0-4.5-2-4.5-4.5V103c0-2.5,2-4.5,4.5-4.5h114c2.5,0,4.5,2,4.5,4.5v74.8 C351.3,180.3,349.2,182.3,346.7,182.3z" class="st2"/><path d="M336.9,189.1h-114c-2.5,0-4.5-2-4.5-4.5v-74.8c0-2.5,2-4.5,4.5-4.5h114c2.5,0,4.5,2,4.5,4.5v74.8 C341.4,187,339.4,189.1,336.9,189.1z" class="st2"/><title>litmus-01</title><rect width="834.2" height="641.2" x="22.9" y="39" class="st3"/><path d="M563.1,53.9H287.6c-1.7,0-3.1-1.7-3.1-3.8v-23c0-2.1,1.4-3.8,3.1-3.8h275.6c1.7,0,3.1,1.7,3.1,3.8v23 C566.2,52.1,564.8,53.9,563.1,53.9z" class="st4"/><text class="st5 st6 st7" transform="matrix(1 0 0 1 348.8907 42.6827)">Litmus Chaos framework</text><path d="M328,197h-114c-2.5,0-4.5-2-4.5-4.5v-74.8c0-2.5,2-4.5,4.5-4.5h114c2.5,0,4.5,2,4.5,4.5v74.8 C332.5,195,330.5,197,328,197z" class="st2"/><path d="M849.2-29.2H592.9c-1.6,0-2.9-1.7-2.9-3.8v-23c0-2.1,1.3-3.8,2.9-3.8h256.3c1.6,0,2.9,1.7,2.9,3.8v23 C852.1-30.9,850.8-29.2,849.2-29.2z" class="st8"/><path d="M509.1-44.8h-62.5c-1.9,0-3.5-1.6-3.5-3.5v-27.4c0-1.9,1.6-3.5,3.5-3.5h62.5c1.9,0,3.5,1.6,3.5,3.5v27.4 C512.6-46.3,511-44.8,509.1-44.8z" class="st9"/><text class="st10" transform="matrix(1 0 0 1 230.5398 143.1767)"><tspan x="0" y="0" class="st11 st6 st7">K8S Job</tspan><tspan x="0" y="16.8" class="st11 st6 st7">(Playbooks/</tspan><tspan x="0" y="33.6" class="st11 st6 st7">Experiments)</tspan></text><g><rect width="146.8" height="43.1" x="193.5" y="258" class="st12"/><text class="st10" transform="matrix(1 0 0 1 240.8314 275.8642)"><tspan x="0" y="0" class="st13 st6 st7">Deploy</tspan><tspan x="-35.4" y="16.8" class="st13 st6 st7">Litmus experiment</tspan></text></g><rect width="146.8" height="25.6" x="432.5" y="393.5" class="st12"/><text class="st13 st6 st7" transform="matrix(1 0 0 1 444.0663 411.3738)">End test execution</text><rect width="146.8" height="25.6" x="192.9" y="382.5" class="st12"/><text class="st13 st6 st7" transform="matrix(1 0 0 1 197.5666 400.3374)">Process test variables</text><g><rect width="146.8" height="25.6" x="469.7" y="588.6" class="st12"/><text class="st13 st6 st7" transform="matrix(1 0 0 1 477.733 606.4831)">Prepare chaos infra</text><rect width="146.8" height="25.6" x="468.7" y="545.3" class="st12"/><text class="st13 st6 st7" transform="matrix(1 0 0 1 495.4091 563.2015)">Induce chaos</text><rect width="146.8" height="25.6" x="467.1" y="499.9" class="st12"/><text class="st13 st6 st7" transform="matrix(1 0 0 1 473.5933 517.7519)">Cleanup chaos infra</text><rect width="146.8" height="25.6" x="466.6" y="456" class="st12"/><text class="st13 st6 st7" transform="matrix(1 0 0 1 480.4596 473.8273)">Post chaos check</text></g><g><g><line x1="264.5" x2="264.5" y1="303.9" y2="372.9" class="st0"/><g><path d="M264.5,379c-1.1-2.8-2.9-6.4-4.8-8.5l4.8,1.7l4.8-1.7C267.3,372.6,265.5,376.1,264.5,379z" class="st1"/></g></g></g><line x1="266.4" x2="266.4" y1="575.4" y2="639.7" class="st0"/><g><g><line x1="266.7" x2="266.7" y1="408.8" y2="426.6" class="st0"/><g><path d="M266.7,432.7c-1.1-2.8-2.9-6.4-4.8-8.5l4.8,1.7l4.8-1.7C269.5,426.3,267.7,429.8,266.7,432.7z" class="st1"/></g></g></g><line x1="264.5" x2="473.4" y1="347.4" y2="347.4" class="st0"/><line x1="265.4" x2="565.1" y1="640.4" y2="640.4" class="st0"/><g><g><line x1="265.2" x2="265.2" y1="196.8" y2="250.6" class="st0"/><g><path d="M265.2,256.7c-1.1-2.8-2.9-6.4-4.8-8.5l4.8,1.7l4.8-1.7C268.1,250.3,266.3,253.8,265.2,256.7z" class="st1"/></g></g></g><text class="st5 st14 st15" transform="matrix(1 0 0 1 196.3236 229.2457)">Pass in ENV</text><text class="st5 st14 st15" transform="matrix(1 0 0 1 344.7367 339.5482)">Initialize CR</text><text class="st5 st14 st15" transform="matrix(1 0 0 1 31.8963 347.9279)">Identify app deployment details</text><text class="st5 st14 st15" transform="matrix(1 0 0 1 30.0342 364.6872)">Identify chaos utils to be called</text><text class="st5 st14 st15" transform="matrix(1 0 0 1 370.0991 495.4803)">failed</text><text class="st5 st14 st15" transform="matrix(1 0 0 1 534.6044 349.7425)">Update CR</text><text class="st5 st14 st15" transform="matrix(1 0 0 1 627.1263 604.6495)">Launch chaos tool as K8S resource</text><text class="st5 st14 st15" transform="matrix(1 0 0 1 629.9195 516.5423)">Remove chaos K8S resources</text><text transform="matrix(1 0 0 1 628.1263 448.4362)"><tspan x="0" y="0" class="st5 st14 st15">App liveness</tspan><tspan x="0" y="12" class="st5 st14 st15">Storage parameters</tspan><tspan x="0" y="24" class="st5 st14 st15">Data Persistence</tspan><tspan x="0" y="36" class="st5 st14 st15">Data Integrity</tspan></text><text class="st5 st14 st15" transform="matrix(1 0 0 1 627.2641 559.2338)">Chaos into specific cluster component</text><rect width="100.2" height="100.2" x="216.8" y="453.7" class="st12" transform="matrix(0.7071 -0.7071 0.7071 0.7071 -278.0588 336.3165)"/><text class="st13 st6 st7" transform="matrix(1 0 0 1 205.1415 506.2828)">steady state checks</text><path d="M555.8,299.1H426.2c-2.5,0-4.5-2-4.5-4.5v-33.2c0-2.5,2-4.5,4.5-4.5h129.6c2.5,0,4.5,2,4.5,4.5v33.2 C560.4,297.1,558.3,299.1,555.8,299.1z" class="st2"/><text class="st11 st6 st7" transform="matrix(1 0 0 1 459.506 282.2447)">Result CR</text><g><g><line x1="473.1" x2="473.1" y1="347.4" y2="304.4" class="st0"/><g><path d="M473.1,298.4c1.1,2.8,2.9,6.4,4.8,8.5l-4.8-1.7l-4.8,1.7C470.2,304.7,472,301.2,473.1,298.4z" class="st1"/></g></g></g><line x1="338.6" x2="457.4" y1="503.9" y2="503.9" class="st0"/><g><g><line x1="457.6" x2="457.6" y1="504.2" y2="425.6" class="st0"/><g><path d="M457.6,419.5c1.1,2.8,2.9,6.4,4.8,8.5l-4.8-1.7l-4.8,1.7C454.8,425.9,456.6,422.4,457.6,419.5z" class="st1"/></g></g></g><g><g><line x1="522.8" x2="522.8" y1="393.1" y2="303.4" class="st0"/><g><path d="M522.8,297.4c1.1,2.8,2.9,6.4,4.8,8.5l-4.8-1.7l-4.8,1.7C519.9,303.7,521.7,300.2,522.8,297.4z" class="st1"/></g></g></g></g></switch></svg>