<svg xmlns="http://www.w3.org/2000/svg" xmlns:xlink="http://www.w3.org/1999/xlink" id="Layer_1" x="0" y="0" enable-background="new 0 0 831.7 701.8" version="1.1" viewBox="0 0 831.7 701.8" xml:space="preserve"><style type="text/css">.st0,.st1,.st2{fill:#006ffe;stroke:#fff;stroke-miterlimit:10}.st1,.st2{fill:none;stroke:#b2afaf;stroke-width:.5}.st2{fill:#fff;stroke:#a2a4a7}.st3{fill:#717272}.st4{font-family:&apos;Helvetica-Light&apos;}.st5{font-size:14px}.st6{fill:#006ffe}.st7{fill:#1ae0e6}.st8{enable-background:new}.st9{fill:#fff}.st10{fill:#1ae0e6;stroke:#006ffe;stroke-miterlimit:10}.st11{fill:#303030}.st12{fill:#606060}.st13{fill:none;stroke:#939393;stroke-miterlimit:10}.st14{fill:#939393}.st15{stroke-dasharray:6,6}.st15,.st16,.st17,.st18{fill:none;stroke:#939393;stroke-miterlimit:10}.st16{stroke-dasharray:6.0592,6.0592}.st17{stroke-dasharray:6.0719,6.0719}.st18{stroke-dasharray:6.115,6.115}.st19{font-family:&apos;AndaleMono&apos;}.st20{font-size:10px}</style><switch><g><path d="M194,140.4H80c-2.5,0-4.5-2-4.5-4.5V61.1c0-2.5,2-4.5,4.5-4.5h114c2.5,0,4.5,2,4.5,4.5v74.8 C198.6,138.4,196.5,140.4,194,140.4z" class="st0"/><path d="M184.2,147.2h-114c-2.5,0-4.5-2-4.5-4.5V67.8c0-2.5,2-4.5,4.5-4.5h114c2.5,0,4.5,2,4.5,4.5v74.8 C188.7,145.1,186.7,147.2,184.2,147.2z" class="st0"/><title>litmus-01</title><rect width="781.5" height="641.2" x="25.5" y="39" class="st1"/><path d="M518.8,53.9H243.3c-1.7,0-3.1-1.7-3.1-3.8v-23c0-2.1,1.4-3.8,3.1-3.8h275.5c1.7,0,3.1,1.7,3.1,3.8v23 C521.9,52.1,520.5,53.9,518.8,53.9z" class="st2"/><text class="st3 st4 st5" transform="matrix(1 0 0 1 274.58 42.6827)">Workflow of a Litmus Experiment</text><path d="M175.3,155.1h-114c-2.5,0-4.5-2-4.5-4.5V75.8c0-2.5,2-4.5,4.5-4.5h114c2.5,0,4.5,2,4.5,4.5v74.8 C179.8,153.1,177.8,155.1,175.3,155.1z" class="st0"/><path d="M839.9-29.2H583.6c-1.6,0-2.9-1.7-2.9-3.8v-23c0-2.1,1.3-3.8,2.9-3.8h256.3c1.6,0,2.9,1.7,2.9,3.8v23 C842.8-30.9,841.5-29.2,839.9-29.2z" class="st6"/><path d="M499.8-44.8h-62.5c-1.9,0-3.5-1.6-3.5-3.5v-27.4c0-1.9,1.6-3.5,3.5-3.5h62.5c1.9,0,3.5,1.6,3.5,3.5v27.4 C503.3-46.3,501.7-44.8,499.8-44.8z" class="st7"/><text class="st8" transform="matrix(1 0 0 1 77.8439 101.2785)"><tspan x="0" y="0" class="st9 st4 st5">K8S Job</tspan><tspan x="0" y="16.8" class="st9 st4 st5">(Playbooks/</tspan><tspan x="0" y="33.6" class="st9 st4 st5">Experiments)</tspan></text><g><path d="M645.4,658.5h-90.9c-2.5,0-4.5-2-4.5-4.5v-33.2c0-2.5,2-4.5,4.5-4.5h90.9c2.5,0,4.5,2,4.5,4.5V654 C650,656.5,647.9,658.5,645.4,658.5z" class="st0"/><text class="st9 st4 st5" transform="matrix(1 0 0 1 567.7913 641.6258)">Result CR</text></g><rect width="146.8" height="43.1" x="313.3" y="81.4" class="st10"/><text class="st8" transform="matrix(1 0 0 1 360.6159 99.2614)"><tspan x="0" y="0" class="st11 st4 st5">Deploy</tspan><tspan x="-35.4" y="16.8" class="st11 st4 st5">Litmus experiment</tspan></text><rect width="146.8" height="43.1" x="313.3" y="204.3" class="st10"/><rect width="166.5" height="137" x="35.6" y="369.3" class="st12"/><text class="st8" transform="matrix(1 0 0 1 347.0011 221.4898)"><tspan x="0" y="0" class="st11 st4 st5">Trigger test</tspan><tspan x="4.3" y="16.8" class="st11 st4 st5">Entrypoint</tspan></text><rect width="146.8" height="45.6" x="308.3" y="382.5" class="st10"/><text class="st8" transform="matrix(1 0 0 1 343.3783 401.1446)"><tspan x="0" y="0" class="st11 st4 st5">Mark test as</tspan><tspan x="2" y="16.8" class="st11 st4 st5">In-progress</tspan></text><rect width="146.8" height="43.5" x="307.5" y="439.7" class="st10"/><path d="M181.9,459.8H57c-5.1,0-9.2-4.1-9.2-9.2v-25c0-5.1,4.1-9.2,9.2-9.2h124.9c5.1,0,9.2,4.1,9.2,9.2v25 C191.2,455.7,187,459.8,181.9,459.8z" class="st10"/><text class="st8" transform="matrix(1 0 0 1 340.2094 457.138)"><tspan x="0" y="0" class="st11 st4 st5">Execute test </tspan><tspan x="-4.7" y="16.8" class="st11 st4 st5">business logic</tspan></text><rect width="146.8" height="43.5" x="309.5" y="613.7" class="st10"/><text class="st8" transform="matrix(1 0 0 1 344.5998 631.1105)"><tspan x="0" y="0" class="st11 st4 st5">Mark test as</tspan><tspan x="7.8" y="16.8" class="st11 st4 st5">Complete</tspan></text><rect width="90.2" height="90.2" x="338.9" y="270" class="st10" transform="matrix(0.7071 -0.7071 0.7071 0.7071 -110.3531 363.7988)"/><text class="st8" transform="matrix(1 0 0 1 342.4152 315.0485)"><tspan x="0" y="0" class="st11 st4 st5">Pre-requisties</tspan><tspan x="14.4" y="16.8" class="st11 st4 st5">Passed ?</tspan></text><rect width="90.2" height="90.2" x="339.7" y="504" class="st10" transform="matrix(0.7071 -0.7071 0.7071 0.7071 -275.5483 432.9076)"/><text class="st11 st4 st5" transform="matrix(1 0 0 1 334.6783 553.3478)">Exit criteria met?</text><text class="st9 st4 st5" transform="matrix(1 0 0 1 77.9471 391.3371)">Start Logger</text><text class="st12 st4 st5" transform="matrix(1 0 0 1 59.6707 430.1822)">Capture POD logs</text><text class="st12 st4 st5" transform="matrix(1 0 0 1 54.6165 452.7964)">Capture NODE logs</text><text class="st9 st4 st5" transform="matrix(1 0 0 1 78.2451 486.114)">End Logger</text><g><g><line x1="598.1" x2="598.1" y1="314.6" y2="610.3" class="st13"/><g><path d="M598.1,616.3c-1.1-2.8-2.9-6.4-4.8-8.5l4.8,1.7l4.8-1.7C600.9,610,599.1,613.5,598.1,616.3z" class="st14"/></g></g></g><g><g><line x1="383.7" x2="383.7" y1="126.7" y2="195.7" class="st13"/><g><path d="M383.7,201.7c-1.1-2.8-2.9-6.4-4.8-8.5l4.8,1.7l4.8-1.7C386.6,195.4,384.8,198.9,383.7,201.7z" class="st14"/></g></g></g><g><g><line x1="117.2" x2="117.2" y1="170.6" y2="359.8" class="st15"/><g><path d="M117.2,365.9c-1.1-2.8-2.9-6.4-4.8-8.5l4.8,1.7l4.8-1.7C120.1,359.5,118.3,363,117.2,365.9z" class="st14"/></g></g></g><g><g><line x1="116.4" x2="116.4" y1="511.9" y2="637" class="st15"/><g><path d="M116.4,505.8c-1.1,2.8-2.9,6.4-4.8,8.5l4.8-1.7l4.8,1.7C119.3,512.2,117.5,508.7,116.4,505.8z" class="st14"/></g></g></g><line x1="448.7" x2="597.8" y1="315.1" y2="315.1" class="st13"/><g><g><line x1="383.8" x2="380.8" y1="171.2" y2="171.2" class="st13"/><line x1="374.7" x2="123.2" y1="171.2" y2="171.2" class="st16"/><line x1="120.2" x2="117.2" y1="171.2" y2="171.2" class="st13"/></g></g><g><g><line x1="308.2" x2="305.2" y1="636.3" y2="636.3" class="st13"/><line x1="299.1" x2="120" y1="636.3" y2="636.3" class="st17"/><line x1="117" x2="114" y1="636.3" y2="636.3" class="st13"/></g></g><g><g><line x1="319.6" x2="316.6" y1="315.1" y2="315.1" class="st13"/><line x1="310.5" x2="130.1" y1="315.1" y2="315.1" class="st18"/><line x1="127" x2="124" y1="315.1" y2="315.1" class="st13"/><g><path d="M118,315.1c2.8-1.1,6.4-2.9,8.5-4.8l-1.7,4.8l1.7,4.8C124.4,317.9,120.8,316.1,118,315.1z" class="st14"/></g></g></g><g><g><line x1="449.3" x2="590.5" y1="549.2" y2="549.2" class="st13"/><g><path d="M596.6,549.2c-2.8,1.1-6.4,2.9-8.5,4.8l1.7-4.8l-1.7-4.8C590.2,546.4,593.7,548.2,596.6,549.2z" class="st14"/></g></g></g><g><g><line x1="203.2" x2="302.2" y1="103.9" y2="103.9" class="st13"/><g><path d="M308.2,103.9c-2.8,1.1-6.4,2.9-8.5,4.8l1.7-4.8l-1.7-4.8C301.9,101,305.4,102.8,308.2,103.9z" class="st14"/></g></g></g><g><g><line x1="456.9" x2="543.8" y1="636.3" y2="636.3" class="st13"/><g><path d="M549.8,636.3c-2.8,1.1-6.4,2.9-8.5,4.8l1.7-4.8l-1.7-4.8C543.5,633.4,547,635.2,549.8,636.3z" class="st14"/></g></g></g><text class="st3 st19 st20" transform="matrix(1 0 0 1 467.0005 96.7172)">Create litmus and logger pods</text><text class="st3 st19 st20" transform="matrix(1 0 0 1 451.647 270.1194)">e2e/deployer : is StorageClass valid ?</text><text transform="matrix(1 0 0 1 473.7666 457.5542)"><tspan x="0" y="0" class="st3 st19 st20">app deployer, loadgen, liveness check, </tspan><tspan x="0" y="12" class="st3 st19 st20">e2e, func job, chaos job etc</tspan></text><text class="st3 st19 st20" transform="matrix(1 0 0 1 450.8518 285.842)">load/validate : is app endpoint exposed ?</text><text class="st3 st19 st20" transform="matrix(1 0 0 1 450.8518 301.3598)">func/chaos : is app running ?</text><text class="st3 st19 st20" transform="matrix(1 0 0 1 466.5067 113.4727)">Inject App info and Test info as ENV into the litmus POD</text></g></switch></svg>